PathFileType	4	(X/Y/Z)	C:/Users/beibeiliu/ov580/test_trc/User1\sequence.14_training_dense_left.trc
DataRate	CameraRate	NumFrames	NumMarkers	Units	OrigDataRate	OrigDataStartFrame	OrigNumFrames
120	120	12	19	mm	120	26	50
Frame#	Time	ThumbCMC			ThumbMCP			ThumbIP			ThumbTip			IndexMCP			IndexPIP			IndexTip			MiddleMCP			MiddlePIP			MiddleTip			RingMCP			RingPIP			RingTip			PinkyMCP			PinkyPIP			PinkyTip			BackHand1			BackHand2			BackHand3	
		X0	Y0	Z0	X1	Y1	Z1	X2	Y2	Z2	X3	Y3	Z3	X4	Y4	Z4	X5	Y5	Z5	X6	Y6	Z6	X7	Y7	Z7	X8	Y8	Z8	X9	Y9	Z9	X10	Y10	Z10	X11	Y11	Z11	X12	Y12	Z12	X13	Y13	Z13	X14	Y14	Z14	X15	Y15	Z15	X16	Y16	Z16	X17	Y17	Z17	X18	Y18	Z18	
25	0.208333	-212.343	55.8009	100.741	-214.846	79.5714	74.5242	-216.155	84.5781	44.2853	-210.207	89.9049	21.4333	-237.162	16.7654	20.9971	-239.386	9.53441	-6.27891	-233.852	1.59812	-32.1977	-234.819	-8.38479	19.5264	-235.689	-14.3279	-10.1239	-225.909	-24.317	-39.9424	-220.05	-28.8527	29.1409	-219.691	-36.1368	-0.381692	-211.071	-41.6594	-26.0726	-200.253	-40.048	47.6103	-197.193	-50.7014	28.4698	-195.213	-56.3503	4.3108	-218.875	-14.9351	89.7676	-219.489	-5.68734	117.76	-228.766	20.1558	96.156	
26	0.216667	-197.987	59.6125	94.9228	-188.785	77.0437	69.1153	-187.098	79.5315	42.1159	-179.099	80.0305	18.9513	-231.639	36.1053	18.7055	-238.621	23.8497	-6.66665	-237.365	14.8597	-31.3476	-244.591	5.24258	16.6506	-247.415	3.71531	-11.0271	-247.217	-6.61035	-40.0511	-242.398	-11.1197	25.6726	-247.911	-18.1399	-2.29268	-246.347	-25.1105	-29.2765	-229.771	-35.3783	48.6552	-234.449	-41.5633	24.7846	-241.173	-48.4913	3.35183	-234.058	-5.67421	81.0806	-231.327	0.190286	117.975	-227.621	32.7925	90.6816	
27	0.225	-175.334	47.3638	98.7968	-151.929	60.2619	78.1227	-144.755	67.0285	47.6365	-132.382	65.9573	25.5403	-208.435	46.5224	19.6682	-212.733	47.0982	-11.2254	-217.538	35.4124	-34.5704	-231.938	33.7139	12.7325	-239.39	29.3594	-14.756	-239.06	24.2199	-48.3008	-244.689	12.5694	25.6772	-252.33	12.183	-5.55732	-254.99	7.24278	-28.0289	-247.576	-12.5886	46.7019	-253.899	-12.5893	27.0693	-264.169	-14.2821	1.16376	-232.072	16.3706	79.2695	-232.716	15.096	113.75	-213.489	41.9224	88.0421	
28	0.233333	-153.281	32.057	103.613	-131.801	26.1632	87.8118	-115.83	26.8561	62.8037	-101.993	21.7452	44.4704	-177.924	48.6297	21.4563	-181.032	49.3521	-4.60515	-185.328	44.3459	-36.4004	-204.369	47.3722	19.253	-209.558	50.4984	-13.984	-214.622	44.5215	-40.9575	-227.495	36.97	24.3943	-232.295	43.831	-3.5362	-236.195	41.8316	-27.3133	-242.595	16.686	46.1652	-256.021	19.8288	26.2083	-265.846	27.8206	4.16573	-224.42	32.55	77.2076	-222.372	32.1269	115.6	-191.961	45.7248	94.6402	
29	0.241667	-142.43	11.5382	113.402	-123.528	-5.5027	95.6045	-102.441	-15.4832	79.7862	-89.0509	-28.162	66.3441	-155.41	27.9475	28.1301	-152.183	27.3542	0.0187897	-152.472	22.2286	-29.3056	-184.866	37.5476	19.7313	-184.571	37.3069	-9.92849	-186.932	33.0428	-42.6862	-205.454	34.2025	27.2537	-208.49	39.3763	-0.342425	-214.54	39.9129	-24.463	-227.202	22.6547	47.8339	-239.231	30.7412	28.8664	-245.404	41.1955	8.08039	-201.991	34.1802	83.5498	-205.275	37.1987	114.475	-170.666	38.2276	98.2301	
30	0.25	-135.916	2.31121	118.429	-115.162	-22.9714	110.763	-103.851	-39.0725	98.6153	-86.4053	-54.2442	90.4443	-133.784	4.37023	33.2018	-135.72	-0.95443	10.9815	-134.924	-9.72309	-19.364	-167.687	13.5924	26.7097	-166.74	9.15657	-4.52911	-168.487	1.59054	-31.8101	-189.432	15.1893	28.7982	-192.309	14.6513	1.38034	-188.715	11.3269	-22.855	-215.04	9.22031	49.756	-222.523	12.5208	33.1305	-227.365	23.9997	7.34345	-193.532	27.1193	81.3514	-196.611	35.7429	115.422	-160.384	30.4965	99.8619	
31	0.258333	-129.75	18.5166	125.499	-103.521	-4.61516	123.67	-88.7567	-19.243	112.967	-67.1136	-31.4237	111.218	-125.005	0.62597	39.1574	-117.197	-9.17353	19.2457	-113.04	-23.1478	-5.01055	-152.447	-1.43462	26.5075	-147.816	-12.8738	1.41263	-143.878	-24.1756	-25.3872	-178.938	-6.54033	34.5606	-174.614	-12.2294	9.77236	-171.285	-20.6695	-16.3554	-202.082	-13.0832	56.0202	-207.595	-15.6197	32.9024	-207.823	-13.0099	12.0489	-187.745	17.7573	81.6822	-194.964	31.9961	112.628	-154.875	32.9419	98.6269	
32	0.266667	-136.863	44.2332	119.377	-105.716	36.5294	119.261	-80.5505	29.2902	110.256	-60.3098	19.7095	103.453	-121.092	16.225	42.8661	-110.38	0.506681	20.183	-101.332	-16.075	0.657195	-145.158	-3.86576	31.6913	-134.355	-16.2783	7.23607	-120.968	-31.9367	-15.2948	-161.862	-15.5573	37.7859	-156.19	-27.0621	14.9756	-145.834	-39.6552	-5.98832	-181.222	-32.0351	59.1953	-176.114	-38.1256	38.3124	-173.792	-44.9297	13.5165	-186.292	7.03989	79.3994	-200.424	22.8886	108.102	-169.693	35.62	93.3583	
33	0.275	-159.661	64.4938	107.164	-128.358	73.9149	99.4116	-102.252	74.8887	84.1024	-82.4998	73.7968	78.9571	-130.654	22.4354	36.1498	-114.882	10.8306	15.9184	-96.2607	-1.746	-0.481188	-136.186	-3.06717	29.7905	-120.647	-14.3189	10.7961	-100.855	-25.6854	-6.81933	-142.667	-21.7395	41.3696	-129.748	-33.3435	23.2069	-110.697	-44.6975	4.85562	-148.762	-41.0434	65.8341	-136.974	-47.3111	50.7686	-129.481	-58.2682	31.4376	-178.311	-1.64884	81.1991	-198.221	6.19845	104.688	-181.612	31.4908	85.0722	
34	0.283333	-179.191	58.6047	98.838	-157.47	80.4346	84.3569	-138.324	85.6535	65.9853	-117.947	90.5779	51.9775	-142.022	21.6183	30.7515	-120.991	10.2978	8.18809	-104.23	2.25417	-4.15883	-134.587	-7.34111	29.0194	-113.147	-16.0194	10.5247	-86.8303	-21.3083	-6.83436	-130.195	-25.9181	48.2855	-109.918	-30.7198	26.8637	-86.0386	-36.9017	14.2805	-127.445	-35.7592	78.5374	-108.062	-41.866	60.953	-91.5771	-46.03	43.3583	-171.119	-11.1521	86.2672	-192.601	-6.43958	114.617	-186.437	17.6312	85.6606	
35	0.291667	-191.262	52.3781	96.5958	-176.882	70.8511	72.003	-163.506	77.4623	52.7043	-148.448	87.1525	35.0092	-152.495	13.8379	25.2343	-133.835	7.66808	1.0717	-115.45	0.252743	-11.2286	-135.36	-15.9662	30.4188	-115.397	-17.0758	8.65945	-90.1419	-18.4899	-9.15063	-124.065	-27.2908	49.8913	-102.076	-29.7846	28.9388	-80.4558	-27.8769	17.6204	-114.351	-33.3531	76.0891	-95.7381	-33.6682	63.4575	-78.3799	-35.0456	50.9816	-166.517	-20.2846	88.4711	-186.683	-15.3395	117.946	-188.882	9.78974	89.422	
36	0.3	-198.813	46.6045	94.7408	-189.724	62.1468	68.5184	-181.724	69.3182	46.1891	-176.02	83.0821	23.6569	-160.925	3.62592	24.5372	-148.229	-3.20289	3.74785	-128.878	-10.6578	-15.5711	-145.999	-19.7273	29.2676	-128.464	-22.0806	6.47338	-100.864	-25.9959	-10.6801	-130.514	-30.1264	48.8596	-110.665	-32.0229	28.8529	-84.226	-28.0058	10.1621	-117.331	-32.3792	72.094	-100.315	-31.9814	59.5586	-78.615	-32.7495	44.5256	-168.451	-24.0251	93.6396	-186.552	-17.7527	119.138	-192.987	4.28936	90.2437	
